<mxfile host="Electron" agent="Mozilla/5.0 (Windows NT 10.0; Win64; x64) AppleWebKit/537.36 (KHTML, like Gecko) draw.io/25.0.1 Chrome/128.0.6613.186 Electron/32.2.6 Safari/537.36" version="25.0.1">
  <diagram name="Страница — 1" id="TaHP8ERhjF21DIenMy8v">
    <mxGraphModel dx="1909" dy="1144" grid="0" gridSize="10" guides="1" tooltips="1" connect="1" arrows="1" fold="1" page="1" pageScale="1" pageWidth="1169" pageHeight="1654" math="0" shadow="0">
      <root>
        <mxCell id="0" />
        <mxCell id="1" parent="0" />
        <mxCell id="O73x7pwf1NqaDVYSdtjd-1" value="&lt;font style=&quot;font-size: 14px;&quot; face=&quot;Times New Roman&quot;&gt;Пользователь&lt;/font&gt;" style="shape=umlActor;verticalLabelPosition=bottom;verticalAlign=top;html=1;" parent="1" vertex="1">
          <mxGeometry x="365" y="614.52" width="30" height="60" as="geometry" />
        </mxCell>
        <mxCell id="O73x7pwf1NqaDVYSdtjd-2" value="&lt;font style=&quot;font-size: 14px;&quot; face=&quot;Times New Roman&quot;&gt;Администратор&lt;/font&gt;" style="shape=umlActor;verticalLabelPosition=bottom;verticalAlign=top;html=1;" parent="1" vertex="1">
          <mxGeometry x="360" y="763.52" width="30" height="60" as="geometry" />
        </mxCell>
        <mxCell id="O73x7pwf1NqaDVYSdtjd-3" value="" style="endArrow=blockThin;html=1;rounded=0;endFill=0;" parent="1" edge="1">
          <mxGeometry width="50" height="50" relative="1" as="geometry">
            <mxPoint x="380" y="753.52" as="sourcePoint" />
            <mxPoint x="380.00057307201143" y="703.5150202429149" as="targetPoint" />
          </mxGeometry>
        </mxCell>
        <mxCell id="O73x7pwf1NqaDVYSdtjd-4" value="&lt;span style=&quot;&quot; lang=&quot;RU&quot;&gt;&lt;font style=&quot;font-size: 14px;&quot; face=&quot;Times New Roman&quot;&gt;Работа в личном кабинете&lt;/font&gt;&lt;/span&gt;" style="ellipse;whiteSpace=wrap;html=1;" parent="1" vertex="1">
          <mxGeometry x="535.9966657442835" y="776.5178542510123" width="146.97643613896528" height="73.52226720647775" as="geometry" />
        </mxCell>
        <mxCell id="O73x7pwf1NqaDVYSdtjd-5" value="" style="endArrow=none;html=1;rounded=0;entryX=0;entryY=0.5;entryDx=0;entryDy=0;" parent="1" target="O73x7pwf1NqaDVYSdtjd-4" edge="1">
          <mxGeometry width="50" height="50" relative="1" as="geometry">
            <mxPoint x="410" y="813.52" as="sourcePoint" />
            <mxPoint x="685.3331018832488" y="1038.4138056680163" as="targetPoint" />
          </mxGeometry>
        </mxCell>
        <mxCell id="O73x7pwf1NqaDVYSdtjd-6" value="&lt;font style=&quot;font-size: 14px;&quot; face=&quot;Times New Roman&quot;&gt;Доступна после авторизации&lt;/font&gt;" style="html=1;whiteSpace=wrap;" parent="1" vertex="1">
          <mxGeometry x="420.00237498497336" y="727.565020242915" width="107.78271983524122" height="45.95141700404859" as="geometry" />
        </mxCell>
        <mxCell id="O73x7pwf1NqaDVYSdtjd-7" value="" style="endArrow=none;dashed=1;html=1;rounded=0;entryX=0.455;entryY=0.996;entryDx=0;entryDy=0;entryPerimeter=0;" parent="1" target="O73x7pwf1NqaDVYSdtjd-6" edge="1">
          <mxGeometry width="50" height="50" relative="1" as="geometry">
            <mxPoint x="470" y="813.52" as="sourcePoint" />
            <mxPoint x="801.9344078868279" y="1176.268056680162" as="targetPoint" />
          </mxGeometry>
        </mxCell>
        <mxCell id="O73x7pwf1NqaDVYSdtjd-8" value="&lt;span style=&quot;&quot; lang=&quot;RU&quot;&gt;&lt;font style=&quot;font-size: 14px;&quot; face=&quot;Times New Roman&quot;&gt;Добавление/удаление/редактирование учебного материала&lt;/font&gt;&lt;/span&gt;" style="ellipse;whiteSpace=wrap;html=1;" parent="1" vertex="1">
          <mxGeometry x="830" y="763.52" width="166.96" height="83.52" as="geometry" />
        </mxCell>
        <mxCell id="O73x7pwf1NqaDVYSdtjd-9" value="" style="endArrow=open;dashed=1;endFill=0;endSize=12;html=1;rounded=0;entryX=0.004;entryY=0.571;entryDx=0;entryDy=0;exitX=1;exitY=0.5;exitDx=0;exitDy=0;entryPerimeter=0;" parent="1" source="O73x7pwf1NqaDVYSdtjd-4" target="O73x7pwf1NqaDVYSdtjd-8" edge="1">
          <mxGeometry width="160" relative="1" as="geometry">
            <mxPoint x="1242.8637163037235" y="569.7093522267207" as="sourcePoint" />
            <mxPoint x="1411.3966964097374" y="543.5170445344129" as="targetPoint" />
          </mxGeometry>
        </mxCell>
        <mxCell id="O73x7pwf1NqaDVYSdtjd-10" value="&lt;font style=&quot;font-size: 14px;&quot; face=&quot;Times New Roman&quot;&gt;&amp;lt;&amp;lt;include&amp;gt;&amp;gt;&lt;/font&gt;" style="edgeLabel;html=1;align=center;verticalAlign=middle;resizable=0;points=[];" parent="O73x7pwf1NqaDVYSdtjd-9" vertex="1" connectable="0">
          <mxGeometry x="0.1356" y="2" relative="1" as="geometry">
            <mxPoint as="offset" />
          </mxGeometry>
        </mxCell>
        <mxCell id="O73x7pwf1NqaDVYSdtjd-13" value="&lt;span style=&quot;line-height: 150%;&quot; lang=&quot;RU&quot;&gt;&lt;font style=&quot;font-size: 14px;&quot; face=&quot;Times New Roman&quot;&gt;Выбор&lt;br/&gt;урока по интересующей тематике&lt;/font&gt;&lt;/span&gt;" style="ellipse;whiteSpace=wrap;html=1;" parent="1" vertex="1">
          <mxGeometry x="618.51" y="500" width="187.07" height="73.52" as="geometry" />
        </mxCell>
        <mxCell id="O73x7pwf1NqaDVYSdtjd-14" value="" style="endArrow=open;dashed=1;endFill=0;endSize=12;html=1;rounded=0;entryX=0.5;entryY=1;entryDx=0;entryDy=0;exitX=0.5;exitY=0;exitDx=0;exitDy=0;" parent="1" source="O73x7pwf1NqaDVYSdtjd-22" target="O73x7pwf1NqaDVYSdtjd-13" edge="1">
          <mxGeometry width="160" relative="1" as="geometry">
            <mxPoint x="740.03" y="653.9" as="sourcePoint" />
            <mxPoint x="1468.4266964097374" y="383.89704453441294" as="targetPoint" />
          </mxGeometry>
        </mxCell>
        <mxCell id="O73x7pwf1NqaDVYSdtjd-15" value="&lt;font style=&quot;font-size: 14px;&quot; face=&quot;Times New Roman&quot;&gt;&amp;lt;&amp;lt;include&amp;gt;&amp;gt;&lt;/font&gt;" style="edgeLabel;html=1;align=center;verticalAlign=middle;resizable=0;points=[];" parent="O73x7pwf1NqaDVYSdtjd-14" vertex="1" connectable="0">
          <mxGeometry x="0.1356" y="2" relative="1" as="geometry">
            <mxPoint as="offset" />
          </mxGeometry>
        </mxCell>
        <mxCell id="O73x7pwf1NqaDVYSdtjd-16" value="&lt;span style=&quot;&quot; lang=&quot;RU&quot;&gt;&lt;font face=&quot;Times New Roman&quot; style=&quot;font-size: 14px;&quot;&gt;Доступ к текстовой информации&lt;/font&gt;&lt;/span&gt;" style="ellipse;whiteSpace=wrap;html=1;" parent="1" vertex="1">
          <mxGeometry x="707.7065532664833" y="389.99813765182193" width="146.97643613896528" height="73.52226720647775" as="geometry" />
        </mxCell>
        <mxCell id="O73x7pwf1NqaDVYSdtjd-17" value="" style="endArrow=open;dashed=1;endFill=0;endSize=12;html=1;rounded=0;entryX=0.5;entryY=1;entryDx=0;entryDy=0;exitX=0.5;exitY=0;exitDx=0;exitDy=0;" parent="1" source="O73x7pwf1NqaDVYSdtjd-13" target="O73x7pwf1NqaDVYSdtjd-16" edge="1">
          <mxGeometry width="160" relative="1" as="geometry">
            <mxPoint x="825.95" y="513.52" as="sourcePoint" />
            <mxPoint x="1554.3466964097374" y="243.51704453441295" as="targetPoint" />
          </mxGeometry>
        </mxCell>
        <mxCell id="O73x7pwf1NqaDVYSdtjd-18" value="&lt;font style=&quot;font-size: 14px;&quot; face=&quot;Times New Roman&quot;&gt;&amp;lt;&amp;lt;include&amp;gt;&amp;gt;&lt;/font&gt;" style="edgeLabel;html=1;align=center;verticalAlign=middle;resizable=0;points=[];" parent="O73x7pwf1NqaDVYSdtjd-17" vertex="1" connectable="0">
          <mxGeometry x="0.1356" y="2" relative="1" as="geometry">
            <mxPoint as="offset" />
          </mxGeometry>
        </mxCell>
        <mxCell id="O73x7pwf1NqaDVYSdtjd-19" value="&lt;font face=&quot;Times New Roman&quot;&gt;&lt;span style=&quot;font-size: 14px;&quot;&gt;Просмотр&amp;nbsp;&lt;/span&gt;&lt;/font&gt;&lt;div&gt;&lt;font face=&quot;Times New Roman&quot;&gt;&lt;span style=&quot;font-size: 14px;&quot;&gt;видеоматериалов&lt;/span&gt;&lt;/font&gt;&lt;/div&gt;" style="ellipse;whiteSpace=wrap;html=1;align=center;" parent="1" vertex="1">
          <mxGeometry x="419.99655326648326" y="506.47813765182195" width="146.97643613896528" height="73.52226720647775" as="geometry" />
        </mxCell>
        <mxCell id="O73x7pwf1NqaDVYSdtjd-20" value="" style="endArrow=open;dashed=1;endFill=0;endSize=12;html=1;rounded=0;entryX=1;entryY=0;entryDx=0;entryDy=0;exitX=0;exitY=0;exitDx=0;exitDy=0;" parent="1" source="O73x7pwf1NqaDVYSdtjd-13" target="O73x7pwf1NqaDVYSdtjd-19" edge="1">
          <mxGeometry width="160" relative="1" as="geometry">
            <mxPoint x="865.95" y="413.52" as="sourcePoint" />
            <mxPoint x="1594.3466964097374" y="143.51704453441295" as="targetPoint" />
          </mxGeometry>
        </mxCell>
        <mxCell id="O73x7pwf1NqaDVYSdtjd-21" value="&lt;font style=&quot;font-size: 14px;&quot; face=&quot;Times New Roman&quot;&gt;&amp;lt;&amp;lt;include&amp;gt;&amp;gt;&lt;/font&gt;" style="edgeLabel;html=1;align=center;verticalAlign=middle;resizable=0;points=[];" parent="O73x7pwf1NqaDVYSdtjd-20" vertex="1" connectable="0">
          <mxGeometry x="0.1356" y="2" relative="1" as="geometry">
            <mxPoint as="offset" />
          </mxGeometry>
        </mxCell>
        <mxCell id="O73x7pwf1NqaDVYSdtjd-22" value="&lt;span style=&quot;font-size: 14px;&quot; lang=&quot;RU&quot;&gt;&lt;font style=&quot;font-size: 14px;&quot; face=&quot;Times New Roman&quot;&gt;Просмотр&amp;nbsp;&lt;/font&gt;&lt;/span&gt;&lt;div style=&quot;font-size: 14px;&quot;&gt;&lt;span style=&quot;&quot; lang=&quot;RU&quot;&gt;&lt;font style=&quot;font-size: 14px;&quot; face=&quot;RChe2X23MqmZw-pB45D0&quot;&gt;сайта&lt;/font&gt;&lt;/span&gt;&lt;/div&gt;" style="ellipse;whiteSpace=wrap;html=1;" parent="1" vertex="1">
          <mxGeometry x="520.6366657442835" y="614.5178542510123" width="146.97643613896528" height="73.52226720647775" as="geometry" />
        </mxCell>
        <mxCell id="O73x7pwf1NqaDVYSdtjd-23" value="" style="endArrow=none;html=1;rounded=0;entryX=0;entryY=0.5;entryDx=0;entryDy=0;" parent="1" target="O73x7pwf1NqaDVYSdtjd-22" edge="1">
          <mxGeometry width="50" height="50" relative="1" as="geometry">
            <mxPoint x="400" y="651.52" as="sourcePoint" />
            <mxPoint x="675.3331018832488" y="876.4138056680163" as="targetPoint" />
          </mxGeometry>
        </mxCell>
        <mxCell id="O73x7pwf1NqaDVYSdtjd-26" value="&lt;span style=&quot;&quot; lang=&quot;RU&quot;&gt;&lt;font style=&quot;font-size: 14px;&quot; face=&quot;Times New Roman&quot;&gt;Переход на вспомогательные сайты&lt;/font&gt;&lt;/span&gt;" style="ellipse;whiteSpace=wrap;html=1;" parent="1" vertex="1">
          <mxGeometry x="805.5765532664833" y="579.9981376518219" width="146.97643613896528" height="73.52226720647775" as="geometry" />
        </mxCell>
        <mxCell id="O73x7pwf1NqaDVYSdtjd-27" value="" style="endArrow=open;dashed=1;endFill=0;endSize=12;html=1;rounded=0;entryX=0;entryY=0.5;entryDx=0;entryDy=0;exitX=1;exitY=0.5;exitDx=0;exitDy=0;" parent="1" source="O73x7pwf1NqaDVYSdtjd-22" target="O73x7pwf1NqaDVYSdtjd-26" edge="1">
          <mxGeometry width="160" relative="1" as="geometry">
            <mxPoint x="779.54" y="705.52" as="sourcePoint" />
            <mxPoint x="1596.9666964097373" y="463.89704453441294" as="targetPoint" />
          </mxGeometry>
        </mxCell>
        <mxCell id="O73x7pwf1NqaDVYSdtjd-28" value="&lt;font style=&quot;font-size: 14px;&quot; face=&quot;Times New Roman&quot;&gt;&amp;lt;&amp;lt;include&amp;gt;&amp;gt;&lt;/font&gt;" style="edgeLabel;html=1;align=center;verticalAlign=middle;resizable=0;points=[];" parent="O73x7pwf1NqaDVYSdtjd-27" vertex="1" connectable="0">
          <mxGeometry x="0.1356" y="2" relative="1" as="geometry">
            <mxPoint as="offset" />
          </mxGeometry>
        </mxCell>
        <mxCell id="O73x7pwf1NqaDVYSdtjd-33" value="&lt;span style=&quot;&quot; lang=&quot;RU&quot;&gt;&lt;font style=&quot;font-size: 14px;&quot; face=&quot;Times New Roman&quot;&gt;Обращение в техническую поддержку&lt;/font&gt;&lt;/span&gt;" style="ellipse;whiteSpace=wrap;html=1;" parent="1" vertex="1">
          <mxGeometry x="689.9965532664833" y="679.9981376518219" width="146.97643613896528" height="73.52226720647775" as="geometry" />
        </mxCell>
        <mxCell id="O73x7pwf1NqaDVYSdtjd-34" value="" style="endArrow=open;dashed=1;endFill=0;endSize=12;html=1;rounded=0;entryX=0;entryY=0.5;entryDx=0;entryDy=0;exitX=1;exitY=1;exitDx=0;exitDy=0;" parent="1" source="O73x7pwf1NqaDVYSdtjd-22" target="O73x7pwf1NqaDVYSdtjd-33" edge="1">
          <mxGeometry width="160" relative="1" as="geometry">
            <mxPoint x="660.03" y="776.76" as="sourcePoint" />
            <mxPoint x="1601.0266964097373" y="691.657044534413" as="targetPoint" />
          </mxGeometry>
        </mxCell>
        <mxCell id="O73x7pwf1NqaDVYSdtjd-35" value="&lt;font style=&quot;font-size: 14px;&quot; face=&quot;Times New Roman&quot;&gt;&amp;lt;&amp;lt;include&amp;gt;&amp;gt;&lt;/font&gt;" style="edgeLabel;html=1;align=center;verticalAlign=middle;resizable=0;points=[];" parent="O73x7pwf1NqaDVYSdtjd-34" vertex="1" connectable="0">
          <mxGeometry x="0.1356" y="2" relative="1" as="geometry">
            <mxPoint as="offset" />
          </mxGeometry>
        </mxCell>
        <mxCell id="O73x7pwf1NqaDVYSdtjd-36" value="" style="endArrow=open;dashed=1;endFill=0;endSize=12;html=1;rounded=0;entryX=0.004;entryY=0.571;entryDx=0;entryDy=0;exitX=1;exitY=1;exitDx=0;exitDy=0;entryPerimeter=0;" parent="1" source="O73x7pwf1NqaDVYSdtjd-4" target="O73x7pwf1NqaDVYSdtjd-38" edge="1">
          <mxGeometry width="160" relative="1" as="geometry">
            <mxPoint x="658.58" y="933.52" as="sourcePoint" />
            <mxPoint x="1386.9766964097373" y="663.5170445344129" as="targetPoint" />
          </mxGeometry>
        </mxCell>
        <mxCell id="O73x7pwf1NqaDVYSdtjd-37" value="&lt;font style=&quot;font-size: 14px;&quot; face=&quot;Times New Roman&quot;&gt;&amp;lt;&amp;lt;include&amp;gt;&amp;gt;&lt;/font&gt;" style="edgeLabel;html=1;align=center;verticalAlign=middle;resizable=0;points=[];" parent="O73x7pwf1NqaDVYSdtjd-36" vertex="1" connectable="0">
          <mxGeometry x="0.1356" y="2" relative="1" as="geometry">
            <mxPoint as="offset" />
          </mxGeometry>
        </mxCell>
        <mxCell id="O73x7pwf1NqaDVYSdtjd-38" value="&lt;span style=&quot;&quot; lang=&quot;RU&quot;&gt;&lt;font style=&quot;font-size: 14px;&quot; face=&quot;Times New Roman&quot;&gt;Работа с&amp;nbsp;&lt;/font&gt;&lt;/span&gt;&lt;div&gt;&lt;span style=&quot;&quot; lang=&quot;RU&quot;&gt;&lt;font style=&quot;font-size: 14px;&quot; face=&quot;Times New Roman&quot;&gt;пользователем (ответы на вопросы и помощь с поддержкой)&lt;/font&gt;&lt;/span&gt;&lt;/div&gt;" style="ellipse;whiteSpace=wrap;html=1;" parent="1" vertex="1">
          <mxGeometry x="805.58" y="893.52" width="179.92" height="90" as="geometry" />
        </mxCell>
        <mxCell id="O73x7pwf1NqaDVYSdtjd-43" value="&lt;font style=&quot;font-size: 14px;&quot; face=&quot;Times New Roman&quot;&gt;Проработка учебного материала&lt;/font&gt;" style="ellipse;whiteSpace=wrap;html=1;" parent="1" vertex="1">
          <mxGeometry x="544.2635638610345" y="299.9961538461539" width="146.97643613896528" height="73.52226720647775" as="geometry" />
        </mxCell>
        <mxCell id="O73x7pwf1NqaDVYSdtjd-44" value="" style="endArrow=open;dashed=1;endFill=0;endSize=12;html=1;rounded=0;entryX=0.5;entryY=1;entryDx=0;entryDy=0;exitX=0.5;exitY=0;exitDx=0;exitDy=0;" parent="1" source="O73x7pwf1NqaDVYSdtjd-16" target="O73x7pwf1NqaDVYSdtjd-43" edge="1">
          <mxGeometry width="160" relative="1" as="geometry">
            <mxPoint x="536.95" y="350" as="sourcePoint" />
            <mxPoint x="881.7948559154611" y="339.6943319838058" as="targetPoint" />
          </mxGeometry>
        </mxCell>
        <mxCell id="O73x7pwf1NqaDVYSdtjd-45" value="&amp;lt;&amp;lt;extend&amp;gt;&amp;gt;" style="edgeLabel;html=1;align=center;verticalAlign=middle;resizable=0;points=[];" parent="O73x7pwf1NqaDVYSdtjd-44" vertex="1" connectable="0">
          <mxGeometry x="0.1356" y="2" relative="1" as="geometry">
            <mxPoint as="offset" />
          </mxGeometry>
        </mxCell>
        <mxCell id="QZpvOxcxrOjkL20DbLv2-1" value="&lt;font style=&quot;font-size: 14px;&quot; face=&quot;Times New Roman&quot;&gt;Проработка учебного материала&lt;/font&gt;" style="ellipse;whiteSpace=wrap;html=1;" parent="1" vertex="1">
          <mxGeometry x="373.66356386103456" y="399.9961538461539" width="146.97643613896528" height="73.52226720647775" as="geometry" />
        </mxCell>
        <mxCell id="QZpvOxcxrOjkL20DbLv2-2" value="" style="endArrow=open;dashed=1;endFill=0;endSize=12;html=1;rounded=0;entryX=0.5;entryY=1;entryDx=0;entryDy=0;exitX=0;exitY=0;exitDx=0;exitDy=0;" parent="1" source="O73x7pwf1NqaDVYSdtjd-19" target="QZpvOxcxrOjkL20DbLv2-1" edge="1">
          <mxGeometry width="160" relative="1" as="geometry">
            <mxPoint x="430" y="350" as="sourcePoint" />
            <mxPoint x="651.8048559154611" y="339.6943319838058" as="targetPoint" />
          </mxGeometry>
        </mxCell>
        <mxCell id="QZpvOxcxrOjkL20DbLv2-3" value="&amp;lt;&amp;lt;extend&amp;gt;&amp;gt;" style="edgeLabel;html=1;align=center;verticalAlign=middle;resizable=0;points=[];" parent="QZpvOxcxrOjkL20DbLv2-2" vertex="1" connectable="0">
          <mxGeometry x="0.1356" y="2" relative="1" as="geometry">
            <mxPoint as="offset" />
          </mxGeometry>
        </mxCell>
        <mxCell id="cxHBO8P3CBX_5LtpJphX-1" value="&lt;span style=&quot;&quot; lang=&quot;RU&quot;&gt;&lt;font style=&quot;font-size: 14px;&quot; face=&quot;Times New Roman&quot;&gt;Выполнение тестов&lt;/font&gt;&lt;/span&gt;" style="ellipse;whiteSpace=wrap;html=1;" parent="1" vertex="1">
          <mxGeometry x="869.9965532664833" y="449.99813765182193" width="146.97643613896528" height="73.52226720647775" as="geometry" />
        </mxCell>
        <mxCell id="cxHBO8P3CBX_5LtpJphX-2" value="" style="endArrow=open;dashed=1;endFill=0;endSize=12;html=1;rounded=0;entryX=0;entryY=1;entryDx=0;entryDy=0;exitX=1;exitY=0;exitDx=0;exitDy=0;" parent="1" source="O73x7pwf1NqaDVYSdtjd-13" target="cxHBO8P3CBX_5LtpJphX-1" edge="1">
          <mxGeometry width="160" relative="1" as="geometry">
            <mxPoint x="682.97" y="357" as="sourcePoint" />
            <mxPoint x="1613.9666964097373" y="416.417044534413" as="targetPoint" />
          </mxGeometry>
        </mxCell>
        <mxCell id="cxHBO8P3CBX_5LtpJphX-3" value="&lt;font style=&quot;font-size: 14px;&quot; face=&quot;Times New Roman&quot;&gt;&amp;lt;&amp;lt;include&amp;gt;&amp;gt;&lt;/font&gt;" style="edgeLabel;html=1;align=center;verticalAlign=middle;resizable=0;points=[];" parent="cxHBO8P3CBX_5LtpJphX-2" vertex="1" connectable="0">
          <mxGeometry x="0.1356" y="2" relative="1" as="geometry">
            <mxPoint as="offset" />
          </mxGeometry>
        </mxCell>
        <mxCell id="cxHBO8P3CBX_5LtpJphX-4" value="&lt;span style=&quot;line-height: 150%;&quot; lang=&quot;RU&quot;&gt;&lt;font style=&quot;font-size: 14px;&quot; face=&quot;Times New Roman&quot;&gt;Анализ&lt;br/&gt;статистики тестирования&lt;/font&gt;&lt;/span&gt;" style="ellipse;whiteSpace=wrap;html=1;" parent="1" vertex="1">
          <mxGeometry x="527.79" y="920" width="179.92" height="90" as="geometry" />
        </mxCell>
        <mxCell id="cxHBO8P3CBX_5LtpJphX-5" value="" style="endArrow=open;dashed=1;endFill=0;endSize=12;html=1;rounded=0;entryX=0.5;entryY=0;entryDx=0;entryDy=0;exitX=0.5;exitY=1;exitDx=0;exitDy=0;" parent="1" source="O73x7pwf1NqaDVYSdtjd-4" target="cxHBO8P3CBX_5LtpJphX-4" edge="1">
          <mxGeometry width="160" relative="1" as="geometry">
            <mxPoint x="370.18" y="899.91" as="sourcePoint" />
            <mxPoint x="1095.1566964097374" y="724.4270445344129" as="targetPoint" />
          </mxGeometry>
        </mxCell>
        <mxCell id="cxHBO8P3CBX_5LtpJphX-6" value="&lt;font style=&quot;font-size: 14px;&quot; face=&quot;Times New Roman&quot;&gt;&amp;lt;&amp;lt;include&amp;gt;&amp;gt;&lt;/font&gt;" style="edgeLabel;html=1;align=center;verticalAlign=middle;resizable=0;points=[];" parent="cxHBO8P3CBX_5LtpJphX-5" vertex="1" connectable="0">
          <mxGeometry x="0.1356" y="2" relative="1" as="geometry">
            <mxPoint as="offset" />
          </mxGeometry>
        </mxCell>
      </root>
    </mxGraphModel>
  </diagram>
</mxfile>
